<svg width="764" height="389" viewBox="0 0 764 389" fill="none" xmlns="http://www.w3.org/2000/svg">
<path d="M459.571 26.5228H307.356C268.557 26.5228 237.103 58.1885 237.103 97.2501V218.076C237.103 257.137 268.557 288.803 307.356 288.803H459.571C498.37 288.803 529.824 257.137 529.824 218.076V97.2501C529.824 58.1885 498.37 26.5228 459.571 26.5228Z" fill="#44475A"/>
<g filter="url(#filter0_i_44725_53)">
<path d="M322.513 122.888L333.824 140.877L280.632 172.15L333.824 202.846L322.103 221.412L258.256 181.474V162.991L322.513 122.888ZM441.712 122.888L505.806 162.826V181.474L441.957 221.412L430.237 203.671L483.512 172.15L430.237 141.619L441.712 122.888ZM39.4766 310.316L44.3241 318.025L21.527 331.428L44.3241 344.583L39.301 352.54L11.9375 335.424V327.502L39.4766 310.316ZM117.965 310.316L145.433 327.432V335.424L118.07 352.54L113.047 344.937L135.879 331.428L113.047 318.343L117.965 310.316ZM681.274 365.907L672.598 361.911L675.408 356.076L642.424 335.424V327.502L669.963 310.316L674.811 318.025L652.013 331.428L679.412 347.66L704.211 295.852L712.817 299.848L710.042 305.648L745.063 327.432V335.424L717.7 352.54L712.677 344.937L735.509 331.428L706.038 314.064L681.274 365.907Z" fill="#E5E5E5"/>
<path d="M425.478 93.2656V115.898H398.688V201.243H425.478V223.97H341.174V201.243H367.964V115.898H341.174V93.2656H425.478ZM94.4927 304.622V313.11H84.4466V345.114H94.4927V353.636H62.8789V345.114H72.9251V313.11H62.8789V304.622H94.4927Z" fill="#5DE3FF"/>
<path d="M174.736 299.99V353.636H163.636V301.157L174.736 299.99ZM199.044 316.08L186.784 332.701L200.062 353.636H187.417L175.158 333.055L187.417 316.08H199.044ZM214.191 353.636V316.08H223.886L224.658 320.43C226.321 318.544 228.077 317.141 229.927 316.221C231.777 315.302 233.885 314.842 236.25 314.842C239.435 314.842 241.941 315.821 243.767 317.777C245.594 319.734 246.507 322.493 246.507 326.053V353.636H235.407V329.271C235.407 326.96 235.149 325.357 234.634 324.461C234.143 323.542 233.206 323.082 231.824 323.082C230.653 323.082 229.529 323.459 228.452 324.214C227.398 324.968 226.344 326.017 225.291 327.361V353.636H214.191ZM280.903 314.842C284.744 314.842 288.011 315.667 290.704 317.318C293.396 318.968 295.456 321.29 296.885 324.284C298.313 327.255 299.027 330.744 299.027 334.752C299.027 341.023 297.435 345.939 294.25 349.499C291.067 353.059 286.617 354.839 280.903 354.839C275.19 354.839 270.74 353.082 267.555 349.569C264.371 346.057 262.778 341.141 262.778 334.823C262.778 330.838 263.492 327.349 264.921 324.355C266.373 321.361 268.445 319.027 271.138 317.353C273.855 315.679 277.11 314.842 280.903 314.842ZM280.903 323.082C278.632 323.082 276.946 324.025 275.845 325.911C274.768 327.774 274.229 330.744 274.229 334.823C274.229 338.972 274.768 341.978 275.845 343.84C276.946 345.703 278.632 346.634 280.903 346.634C283.175 346.634 284.849 345.703 285.926 343.84C287.027 341.978 287.577 338.949 287.577 334.752C287.577 330.697 287.027 327.738 285.926 325.876C284.849 324.013 283.175 323.082 280.903 323.082ZM346.984 353.636H334.725L331.528 328.387L328.191 353.636H316.143L310.628 316.08H320.78L323.203 346.67L327.137 320.819H336.481L339.994 346.67L342.488 316.08H352.288L346.984 353.636ZM374.18 346.952C374.18 345.514 374.532 344.206 375.234 343.027C375.937 341.825 376.885 340.87 378.08 340.163C379.274 339.432 380.585 339.066 382.014 339.066C383.466 339.066 384.777 339.432 385.948 340.163C387.142 340.87 388.091 341.825 388.793 343.027C389.496 344.206 389.847 345.514 389.847 346.952C389.847 348.367 389.496 349.675 388.793 350.878C388.091 352.08 387.142 353.035 385.948 353.742C384.777 354.473 383.466 354.839 382.014 354.839C380.585 354.839 379.274 354.473 378.08 353.742C376.885 353.035 375.937 352.08 375.234 350.878C374.532 349.675 374.18 348.367 374.18 346.952Z" fill="#FFAE57"/>
<path d="M449.989 351.444C448.537 352.387 446.781 353.188 444.72 353.849C442.66 354.509 440.341 354.839 437.765 354.839C432.894 354.839 429.276 353.589 426.911 351.09C424.546 348.568 423.363 345.149 423.363 340.835V323.789H415.53V316.08H423.363V307.947L434.463 306.603V316.08H446.477L445.388 323.789H434.463V340.835C434.463 342.697 434.885 344.029 435.728 344.831C436.571 345.632 437.917 346.033 439.767 346.033C441.079 346.033 442.273 345.88 443.35 345.573C444.451 345.243 445.434 344.831 446.301 344.336L449.989 351.444ZM478.064 300.06V319.793C481.179 316.493 484.832 314.842 489.023 314.842C492.349 314.842 494.89 315.821 496.646 317.778C498.402 319.734 499.28 322.493 499.28 326.053V353.636H488.18V329.165C488.18 326.901 487.923 325.322 487.408 324.426C486.916 323.53 485.979 323.082 484.598 323.082C483.427 323.082 482.303 323.495 481.225 324.32C480.172 325.121 479.118 326.23 478.064 327.644V353.636H466.964V301.157L478.064 300.06ZM533.608 296.418C535.528 296.418 537.097 297.019 538.315 298.222C539.532 299.424 540.141 300.921 540.141 302.713C540.141 304.504 539.532 306.013 538.315 307.239C537.097 308.442 535.528 309.043 533.608 309.043C531.664 309.043 530.072 308.442 528.831 307.239C527.613 306.013 527.004 304.504 527.004 302.713C527.004 300.921 527.613 299.424 528.831 298.222C530.072 297.019 531.664 296.418 533.608 296.418ZM540.317 316.08V345.998H549.801V353.636H518.644V345.998H529.217V323.719H518.995V316.08H540.317ZM583.036 346.847C584.886 346.847 586.374 346.552 587.498 345.962C588.645 345.373 589.219 344.489 589.219 343.31C589.219 342.509 588.996 341.837 588.551 341.294C588.106 340.752 587.252 340.234 585.987 339.738C584.723 339.243 582.849 338.654 580.367 337.97C576.948 337.051 574.161 335.731 572.007 334.01C569.876 332.288 568.81 329.766 568.81 326.442C568.81 323.094 570.192 320.324 572.955 318.131C575.742 315.939 579.758 314.842 585.004 314.842C588.329 314.842 591.221 315.279 593.68 316.151C596.162 317 598.305 318.084 600.108 319.404L595.682 325.982C594.136 325.015 592.474 324.249 590.694 323.683C588.914 323.094 587.123 322.799 585.32 322.799C581.76 322.799 579.98 323.766 579.98 325.699C579.98 326.336 580.203 326.89 580.648 327.361C581.116 327.809 581.983 328.281 583.247 328.776C584.512 329.247 586.362 329.837 588.797 330.544C591.209 331.228 593.305 332.017 595.085 332.913C596.888 333.809 598.281 335.011 599.265 336.52C600.248 338.006 600.74 339.974 600.74 342.426C600.74 345.161 599.932 347.459 598.317 349.322C596.701 351.161 594.558 352.54 591.888 353.46C589.219 354.379 586.292 354.839 583.107 354.839C579.5 354.839 576.316 354.32 573.552 353.283C570.789 352.245 568.436 350.878 566.492 349.181L572.077 342.886C573.529 344.017 575.168 344.96 576.995 345.715C578.845 346.469 580.859 346.847 583.036 346.847Z" fill="#B07BFC"/>
</g>
<defs>
<filter id="filter0_i_44725_53" x="11.9375" y="93.2656" width="735.126" height="275.642" filterUnits="userSpaceOnUse" color-interpolation-filters="sRGB">
<feFlood flood-opacity="0" result="BackgroundImageFix"/>
<feBlend mode="normal" in="SourceGraphic" in2="BackgroundImageFix" result="shape"/>
<feColorMatrix in="SourceAlpha" type="matrix" values="0 0 0 0 0 0 0 0 0 0 0 0 0 0 0 0 0 0 127 0" result="hardAlpha"/>
<feOffset dx="2" dy="3"/>
<feGaussianBlur stdDeviation="2"/>
<feComposite in2="hardAlpha" operator="arithmetic" k2="-1" k3="1"/>
<feColorMatrix type="matrix" values="0 0 0 0 0 0 0 0 0 0 0 0 0 0 0 0 0 0 0.4 0"/>
<feBlend mode="normal" in2="shape" result="effect1_innerShadow_44725_53"/>
</filter>
</defs>
</svg>
