<svg id="Layer_1" data-name="Layer 1" xmlns="http://www.w3.org/2000/svg" viewBox="0 0 1200 480"><defs><style>.cls-1{fill:#E4AA31;}</style></defs><path class="cls-1" d="M328.92,114.42l-94.06,54.3a13.84,13.84,0,0,0-6.92,12V289.32a13.84,13.84,0,0,0,6.92,12l94.06,54.31a13.85,13.85,0,0,0,13.84,0l94.05-54.31a13.83,13.83,0,0,0,6.93-12V180.71a13.83,13.83,0,0,0-6.93-12l-94.05-54.3A13.85,13.85,0,0,0,328.92,114.42Z"/><path class="cls-1" d="M124.8,163.88,176,193.45a13.85,13.85,0,0,0,13.84,0L205,184.7a13.84,13.84,0,0,0,0-24L124.8,114.42a13.85,13.85,0,0,0-13.84,0L16.9,168.72a13.84,13.84,0,0,0-6.92,12V289.32a13.84,13.84,0,0,0,6.92,12L111,355.61a13.85,13.85,0,0,0,13.84,0L205,309.33a13.84,13.84,0,0,0,0-24l-15.2-8.73a13.87,13.87,0,0,0-13.81,0L124.8,306.15a13.85,13.85,0,0,1-13.84,0L59.73,276.57a13.84,13.84,0,0,1-6.92-12V205.44a13.84,13.84,0,0,1,6.92-12L111,163.88A13.85,13.85,0,0,1,124.8,163.88Z"/><path class="cls-1" d="M802.89,161.88,861,195.45a6.9,6.9,0,0,0,6.92,0l29-16.74a6.92,6.92,0,0,0,0-12l-94.06-54.3a6.9,6.9,0,0,0-6.92,0l-101,58.3a6.9,6.9,0,0,0-3.46,6v116.6a6.92,6.92,0,0,0,3.46,6l101,58.3a7,7,0,0,0,6.92,0l94-54.29a6.93,6.93,0,0,0,0-12l-29.08-16.69a6.91,6.91,0,0,0-6.9,0l-58,33.5a6.9,6.9,0,0,1-6.92,0l-58.14-33.57a6.91,6.91,0,0,1-3.46-6v-6a6.92,6.92,0,0,1,6.92-6.92h54.33a6.92,6.92,0,0,0,6-3.46l15.84-27.44a6.92,6.92,0,0,0-6-10.38H741.29a6.92,6.92,0,0,1-6.92-6.92v-6a6.92,6.92,0,0,1,3.46-6L796,161.88A6.9,6.9,0,0,1,802.89,161.88Z"/><path class="cls-1" d="M947.3,353.6l-27.42-15.83a6.91,6.91,0,0,1-3.46-6V122.36a6.91,6.91,0,0,1,10.36-6L954,132a6.94,6.94,0,0,1,3.48,6l.18,209.64A6.92,6.92,0,0,1,947.3,353.6Z"/><path class="cls-1" d="M1074.67,114.42l-94.06,54.3a13.84,13.84,0,0,0-6.92,12V347.62a6.92,6.92,0,0,0,10.38,6l22.62-13.06a13.83,13.83,0,0,0,6.92-12v-59a13.84,13.84,0,0,1,13.84-13.84h108.27a13.84,13.84,0,0,1,13.84,13.84v59a13.85,13.85,0,0,0,6.92,12l22.62,13.06a6.92,6.92,0,0,0,10.38-6V180.71a13.82,13.82,0,0,0-6.92-12l-94-54.3A13.85,13.85,0,0,0,1074.67,114.42Zm68,100H1020.53a6.92,6.92,0,0,1-6.92-6.92v-7.75a6.92,6.92,0,0,1,3.46-6l57.6-33.25a13.85,13.85,0,0,1,13.84,0l57.59,33.25a6.92,6.92,0,0,1,3.46,6v7.75A6.92,6.92,0,0,1,1142.64,214.43Z"/><path class="cls-1" d="M564.18,170.7l-94-54.29a6.92,6.92,0,0,0-10.38,6l0,225.2a6.92,6.92,0,0,0,10.38,6l29-16.72a6.91,6.91,0,0,0,3.46-6V196.62a6.92,6.92,0,0,1,10.38-6l51.23,29.56a6.93,6.93,0,0,0,6.91,0l51.23-29.56a6.92,6.92,0,0,1,10.38,6V330.89a6.91,6.91,0,0,0,3.46,6l29,16.72a6.92,6.92,0,0,0,10.38-6l0-225.2a6.92,6.92,0,0,0-10.38-6l-94,54.29A6.9,6.9,0,0,1,564.18,170.7Z"/></svg>
